<?xml version="1.0" encoding="UTF-8"?>
<svg id="Layer_2" data-name="Layer 2" xmlns="http://www.w3.org/2000/svg" viewBox="0 0 386.84 48.01">
  <defs>
    <style>
      .cls-1 {
        fill: #fff;
        stroke-width: 0px;
      }
    </style>
  </defs>
  <g id="Layer_1-2" data-name="Layer 1">
    <g>
      <path class="cls-1" d="m45.32,25.25c-.57,0-1.13.04-1.7,0-1.05-.05-.87-.24-1.01.83-.15,1.12-.27,2.24-.71,3.29-.46,1.09-.93,2.18-1.45,3.24-.27.56-.65,1.07-1.01,1.58-.89,1.26-1.91,2.41-3.1,3.38-2.15,1.76-4.58,2.93-7.3,3.56-2.3.54-4.62.53-6.93.26-2.98-.35-5.62-1.53-8.06-3.26-2-1.42-3.57-3.17-4.77-5.3-.83-1.47-1.54-2.99-1.92-4.63-.63-2.7-.57-5.38.09-8.08.54-2.18,1.62-4.07,2.88-5.89,1.2-1.73,2.7-3.15,4.39-4.37,1.02-.73,2.12-1.35,3.29-1.79,1.63-.61,3.32-1.05,5.07-1.15.64-.04,1.28-.17,1.93-.19.47-.02.94.06,1.41.12,1.04.14,2.1.23,3.12.45,2.27.49,4.29,1.52,6.11,2.95,1.41,1.11,2.69,2.35,3.73,3.82,1.46,2.07,2.58,4.31,3.02,6.84.14.81.19,1.64.26,2.46.02.25.1.39.34.38.71-.04,1.13.51,1.67.8.25.14.46.35.69.53l-.05.15Zm-36.62-.91c-.02,1.63.28,3.26.81,4.87.88,2.67,2.27,4.98,4.47,6.77,1.27,1.04,2.61,1.99,4.13,2.63,1.98.83,4.07,1.21,6.2,1.42,1.4.14,2.77-.13,4.12-.43,2.55-.57,4.86-1.63,6.89-3.32,2.3-1.91,3.9-4.26,4.86-7.07.95-2.8,1.08-5.65.41-8.51-.94-4.07-3.18-7.28-6.67-9.6-1.68-1.12-3.54-1.78-5.51-2.2-3.07-.65-6.07-.47-9.03.53-2.24.75-4.17,2.01-5.88,3.6-.91.85-1.7,1.86-2.4,2.9-.78,1.14-1.42,2.38-1.75,3.75-.37,1.51-.68,3.03-.65,4.67Z"/>
      <path class="cls-1" d="m49.61,23.68c-1.17-.09-2.32-.18-3.55-.27,0-.24,0-.54,0-.83.01-6.19.02-12.37.03-18.56,0-.51,0-.5-.47-.5-3.72.02-7.45.03-11.17.05-2.82.01-5.63.02-8.45.03-.03,0-.06-.01-.11-.02,0-.07-.02-.14-.02-.21,0-1.01.01-2.02,0-3.04,0-.27.08-.33.37-.33,1.48.04,2.96.06,4.44.06,5.74,0,11.48-.03,17.22-.05.48,0,.96.02,1.44,0,.27,0,.38.07.38.37-.01,4.15-.01,8.3-.02,12.46,0,3.2,0,6.41,0,9.61,0,.41-.06.82-.09,1.22Z"/>
      <path class="cls-1" d="m23.96.03v3.55c-.22,0-.44,0-.65,0-5.57.01-11.14.03-16.71.04-.9,0-1.79-.02-2.69-.04-.25,0-.32.06-.32.31.01,6.31.02,12.62.02,18.93,0,.82.05.68-.69.72-.87.04-1.75.03-2.63.05-.24,0-.3-.1-.29-.32C.03,16.74.05,10.22.07,3.7c0-1.12,0-2.23-.02-3.35,0-.2.03-.3.27-.3,4.51,0,9.01.01,13.52,0,3.29,0,6.57-.03,9.86-.05.07,0,.14,0,.26.01Z"/>
      <path class="cls-1" d="m25.79,44.4c1.76,0,3.5,0,5.24,0,4.91,0,9.83.02,14.74.04.31,0,.31-.13.31-.36,0-3.93,0-7.87-.01-11.8,0-2.21,0-4.42,0-6.64,0-.1,0-.2,0-.32.45,0,.88,0,1.3,0,.59.01,1.19.05,1.78.05.48,0,.5,0,.51.51.01.82.01,1.65.01,2.47,0,4.26.02,8.51.02,12.77,0,2.16,0,4.32.01,6.48,0,.11,0,.23,0,.36-.08.01-.13.03-.19.03-3.22-.01-6.45-.03-9.67-.03-4.24,0-8.47.01-12.71.03-.34,0-.69.04-1.03.03-.08,0-.24-.12-.24-.19-.05-1.11-.08-2.23-.11-3.35,0-.04.03-.08.03-.08Z"/>
      <path class="cls-1" d="m.05,47.97v-22.66c.1,0,.23-.02.35-.02,1,0,2,.02,3,.01.26,0,.22.16.22.31,0,1.81-.02,3.63-.03,5.44,0,3.9,0,7.8,0,11.7,0,.56,0,1.12,0,1.69.23,0,.46,0,.68,0,6.24-.02,12.48-.04,18.71-.05.16,0,.31,0,.47,0,.5,0,.49,0,.49.48,0,.8,0,1.61.01,2.41,0,.22,0,.43,0,.67H.05Z"/>
      <path class="cls-1" d="m42.39,9.17c0,.83-.36,1.35-1.19,1.68-.69.28-1.44.11-1.98-.44-.48-.49-.59-1.31-.28-1.98.41-.87,1.07-1.21,2.01-1.03,1.12.22,1.37.47,1.43,1.77Z"/>
      <path class="cls-1" d="m8.96,7.44c1.2,0,2.12.84,2.13,1.76,0,1.14-1.25,2.04-2.33,1.68-1.58-.53-1.65-1.97-1.03-3.03.03-.05.08-.1.14-.11.43-.12.86-.24,1.09-.3Z"/>
      <path class="cls-1" d="m42.33,39.35c.08.86-.48,1.33-1.39,1.48-.57.1-1.11,0-1.57-.41-.71-.64-.73-1.56,0-2.19.43-.37.89-.62,1.49-.61.87.02,1.39.48,1.45,1.34,0,.11.01.23.02.38Z"/>
      <path class="cls-1" d="m9.06,40.83c-.14-.02-.29-.03-.43-.05-.86-.16-1.17-.48-1.25-1.27-.08-.8.23-1.31.99-1.61,1.13-.45,2.52.48,2.45,1.64-.04.6-.26.92-.84,1.1-.29.1-.6.15-.9.22,0-.01,0-.02-.01-.03Z"/>
      <path class="cls-1" d="m24.76,13.28c3.52.14,6.26,1.38,8.39,3.88,1.97,2.31,2.8,5.01,2.55,8.03-.1,1.19-.44,2.32-.9,3.4-.28.66-.69,1.28-1.12,1.87-.52.71-1.06,1.42-1.69,2.04-1.05,1.04-2.37,1.68-3.76,2.17-1.99.7-4.03.81-6.04.26-3.27-.89-5.81-2.79-7.33-5.88-.88-1.79-1.19-3.7-1-5.69.2-2.13.89-4.08,2.25-5.74,1.18-1.45,2.59-2.63,4.36-3.31.62-.24,1.24-.52,1.88-.67.87-.19,1.76-.27,2.41-.37Z"/>
    </g>
    <g>
      <path class="cls-1" d="m66.2,7.1h14.69c10.9,0,18.34,6.72,18.34,16.8s-7.44,16.8-18.34,16.8h-14.69V7.1Zm14.4,28.32c7.49,0,12.34-4.56,12.34-11.52s-4.85-11.52-12.34-11.52h-8.16v23.04h8.16Z"/>
      <path class="cls-1" d="m105.85,7.1h6.24v33.6h-6.24V7.1Z"/>
      <path class="cls-1" d="m152.03,40.71l-.05-22.27-11.04,18.43h-2.78l-11.04-18.15v21.99h-5.95V7.1h5.14l13.35,22.27,13.1-22.27h5.14l.05,33.6h-5.9Z"/>
      <path class="cls-1" d="m192.2,35.47v5.23h-25.2V7.1h24.53v5.23h-18.29v8.74h16.23v5.14h-16.23v9.26h18.96Z"/>
      <path class="cls-1" d="m229.02,7.1v33.6h-5.14l-18.53-22.75v22.75h-6.19V7.1h5.14l18.53,22.75V7.1h6.19Z"/>
      <path class="cls-1" d="m235.2,37.15l2.16-4.85c2.69,2.16,6.96,3.7,11.09,3.7,5.23,0,7.44-1.87,7.44-4.37,0-7.25-19.97-2.5-19.97-14.98,0-5.42,4.32-10.03,13.54-10.03,4.03,0,8.26,1.06,11.18,2.98l-1.97,4.85c-3.02-1.78-6.34-2.64-9.26-2.64-5.18,0-7.3,2.02-7.3,4.56,0,7.15,19.92,2.5,19.92,14.83,0,5.38-4.37,9.99-13.58,9.99-5.23,0-10.46-1.63-13.25-4.03Z"/>
      <path class="cls-1" d="m268.23,7.1h6.24v33.6h-6.24V7.1Z"/>
      <path class="cls-1" d="m281.14,23.9c0-9.94,7.68-17.28,18.1-17.28s18.1,7.3,18.1,17.28-7.68,17.28-18.1,17.28-18.1-7.34-18.1-17.28Zm29.91,0c0-6.86-5.04-11.81-11.81-11.81s-11.81,4.94-11.81,11.81,5.04,11.81,11.81,11.81,11.81-4.94,11.81-11.81Z"/>
      <path class="cls-1" d="m353.82,7.1v33.6h-5.14l-18.53-22.75v22.75h-6.19V7.1h5.14l18.53,22.75V7.1h6.19Z"/>
      <path class="cls-1" d="m360,37.15l2.16-4.85c2.69,2.16,6.96,3.7,11.09,3.7,5.23,0,7.44-1.87,7.44-4.37,0-7.25-19.97-2.5-19.97-14.98,0-5.42,4.32-10.03,13.54-10.03,4.03,0,8.26,1.06,11.18,2.98l-1.97,4.85c-3.02-1.78-6.34-2.64-9.26-2.64-5.18,0-7.3,2.02-7.3,4.56,0,7.15,19.92,2.5,19.92,14.83,0,5.38-4.37,9.99-13.58,9.99-5.23,0-10.46-1.63-13.25-4.03Z"/>
    </g>
  </g>
</svg>