<?xml version="1.0" encoding="UTF-8"?><svg id="Layer_2" xmlns="http://www.w3.org/2000/svg" viewBox="0 0 739.72 112.95"><defs><style>.cls-1{fill:#fff;}</style></defs><g id="Layer_2-2"><path class="cls-1" d="M0,111.14V0h33.22c11.17,0,20.69,1.66,28.54,4.98s14.17,7.75,18.95,13.29c4.78,5.54,8.28,11.73,10.49,18.57,2.21,6.85,3.32,13.74,3.32,20.69,0,8.26-1.49,15.68-4.45,22.27-2.97,6.59-7.02,12.23-12.16,16.91-5.13,4.68-11.08,8.25-17.82,10.72-6.75,2.47-13.89,3.7-21.44,3.7H0ZM21.9,90h12.99c5.54,0,10.57-.73,15.1-2.19s8.43-3.6,11.7-6.42,5.79-6.37,7.55-10.65,2.64-9.19,2.64-14.72c0-7.25-1.18-13.16-3.55-17.74s-5.28-8.13-8.76-10.65c-3.47-2.52-7.02-4.25-10.65-5.21-3.62-.96-6.7-1.43-9.21-1.43h-17.82v69.01h.01Z"/><path class="cls-1" d="M106.3,21.74c0-3.12,1.23-5.69,3.7-7.7,2.47-2.01,5.11-3.02,7.93-3.02s5.41,1.01,7.78,3.02c2.36,2.01,3.55,4.58,3.55,7.7s-1.18,5.66-3.55,7.63c-2.37,1.96-4.96,2.94-7.78,2.94s-5.46-.98-7.93-2.94-3.7-4.5-3.7-7.63ZM106.76,45.15h21.14v65.99h-21.14V45.15Z"/><path class="cls-1" d="M162.63,45.15l1.66,11.63-.3-.91c2.62-4.43,5.89-7.88,9.81-10.34,3.93-2.47,8.66-3.7,14.19-3.7,3.62,0,6.82.5,9.59,1.51,2.77,1.01,5.11,2.49,7.02,4.45,1.91,1.96,3.22,4.51,3.93,7.63l-.75.15c2.82-4.13,6.21-7.45,10.19-9.97s8.13-3.77,12.46-3.77c6.54,0,11.75,1.84,15.63,5.51,3.87,3.68,5.86,8.43,5.96,14.27v49.53h-20.99v-40.77c-.1-2.92-.55-5.31-1.36-7.17-.81-1.86-2.67-2.89-5.59-3.1-3.42,0-6.32,1.18-8.68,3.55-2.37,2.37-4.13,5.39-5.29,9.06-1.16,3.68-1.74,7.47-1.74,11.4v27.03h-21.14v-40.77c-.1-2.92-.63-5.31-1.59-7.17-.96-1.86-2.9-2.89-5.81-3.1-3.32,0-6.12,1.18-8.38,3.55-2.26,2.37-3.98,5.36-5.13,8.98-1.16,3.62-1.74,7.35-1.74,11.17v27.33h-21.14V45.14h19.19Z"/><path class="cls-1" d="M300.03,112.95c-8.05,0-14.87-1.51-20.46-4.53s-9.84-7.2-12.76-12.53-4.38-11.48-4.38-18.42,1.71-12.63,5.13-17.97c3.42-5.33,8-9.59,13.74-12.76s12.13-4.76,19.18-4.76c9.46,0,17.24,2.74,23.33,8.23,6.09,5.49,10.04,13.42,11.85,23.78l-51.34,16.31-4.68-11.48,37.15-12.53-4.38,1.96c-.81-2.62-2.24-4.91-4.3-6.87s-5.16-2.94-9.29-2.94c-3.12,0-5.87.73-8.23,2.19-2.37,1.46-4.18,3.52-5.44,6.19s-1.89,5.81-1.89,9.44c0,4.13.75,7.58,2.26,10.34,1.51,2.77,3.57,4.86,6.19,6.27s5.53,2.11,8.76,2.11c2.31,0,4.55-.4,6.72-1.21,2.16-.8,4.3-1.86,6.42-3.17l9.36,15.7c-3.52,2.02-7.32,3.62-11.4,4.83s-7.93,1.81-11.55,1.81h.01Z"/><path class="cls-1" d="M364.06,45.15l1.66,11.78-.3-1.06c2.31-4.13,5.59-7.47,9.81-10.04s9.41-3.85,15.55-3.85,11.45,1.84,15.63,5.51c4.18,3.68,6.32,8.43,6.42,14.27v49.38h-21.14v-41.52c-.1-2.92-.88-5.26-2.34-7.02-1.46-1.76-3.9-2.64-7.32-2.64-3.22,0-6.04,1.06-8.46,3.17-2.42,2.11-4.28,4.98-5.59,8.61-1.31,3.62-1.96,7.8-1.96,12.53v26.88h-21.14V45.16h19.18Z"/><path class="cls-1" d="M449.82,112.5c-5.44,0-10.5-.96-15.18-2.87s-8.63-4.58-11.85-8l8.76-11.63c3.22,2.92,6.21,5.01,8.98,6.27,2.77,1.26,5.26,1.89,7.47,1.89,1.71,0,3.25-.17,4.61-.53,1.36-.35,2.44-.91,3.25-1.66.8-.75,1.21-1.74,1.21-2.94,0-1.71-.68-3.07-2.04-4.08-1.36-1-3.1-1.84-5.21-2.49s-4.38-1.33-6.79-2.04c-6.04-1.91-10.4-4.71-13.06-8.38-2.67-3.67-4-7.68-4-12,0-3.32.88-6.67,2.64-10.04s4.58-6.19,8.46-8.46c3.87-2.27,8.88-3.4,15.02-3.4,5.54,0,10.22.55,14.04,1.66,3.82,1.11,7.45,2.92,10.87,5.44l-8,12.38c-1.91-1.51-4.05-2.79-6.42-3.85-2.37-1.06-4.56-1.64-6.57-1.74-1.81-.1-3.35.1-4.61.6-1.26.51-2.24,1.16-2.94,1.96-.71.81-1.06,1.66-1.06,2.57-.1,1.91.63,3.42,2.19,4.53s3.55,1.96,5.96,2.57,4.78,1.31,7.1,2.11c3.22,1.01,5.99,2.37,8.3,4.08s4.1,3.75,5.36,6.11c1.26,2.37,1.89,5.21,1.89,8.53,0,4.03-1.03,7.83-3.1,11.4-2.06,3.57-5.19,6.47-9.36,8.68-4.18,2.21-9.49,3.32-15.93,3.32h.01Z"/><path class="cls-1" d="M489.23,21.74c0-3.12,1.23-5.69,3.7-7.7s5.11-3.02,7.93-3.02,5.41,1.01,7.78,3.02c2.36,2.01,3.55,4.58,3.55,7.7s-1.18,5.66-3.55,7.63c-2.37,1.96-4.96,2.94-7.78,2.94s-5.46-.98-7.93-2.94-3.7-4.5-3.7-7.63ZM489.69,45.15h21.14v65.99h-21.14V45.15Z"/><path class="cls-1" d="M521.25,77.31c0-6.74,1.58-12.78,4.76-18.12,3.17-5.33,7.63-9.54,13.36-12.61,5.74-3.07,12.33-4.61,19.78-4.61s14.09,1.54,19.63,4.61c5.54,3.07,9.79,7.27,12.76,12.61,2.97,5.34,4.46,11.38,4.46,18.12s-1.49,12.81-4.46,18.2c-2.97,5.39-7.22,9.64-12.76,12.76-5.54,3.12-12.18,4.68-19.93,4.68-7.25,0-13.72-1.41-19.4-4.23-5.69-2.82-10.14-6.89-13.36-12.23-3.22-5.33-4.83-11.73-4.83-19.18h-.01ZM542.54,77.46c0,3.42.7,6.52,2.11,9.29,1.41,2.77,3.32,4.96,5.74,6.57,2.42,1.61,5.13,2.42,8.15,2.42,3.32,0,6.19-.8,8.61-2.42,2.42-1.61,4.28-3.8,5.59-6.57,1.31-2.77,1.96-5.86,1.96-9.29s-.66-6.64-1.96-9.36c-1.31-2.72-3.17-4.88-5.59-6.49-2.42-1.61-5.28-2.42-8.61-2.42-3.02,0-5.74.81-8.15,2.42-2.42,1.61-4.33,3.77-5.74,6.49s-2.11,5.84-2.11,9.36Z"/><path class="cls-1" d="M625.59,45.15l1.66,11.78-.3-1.06c2.31-4.13,5.59-7.47,9.81-10.04,4.23-2.57,9.41-3.85,15.55-3.85s11.45,1.84,15.63,5.51c4.18,3.68,6.32,8.43,6.42,14.27v49.38h-21.14v-41.52c-.1-2.92-.88-5.26-2.34-7.02-1.46-1.76-3.9-2.64-7.32-2.64-3.22,0-6.04,1.06-8.46,3.17-2.42,2.11-4.28,4.98-5.59,8.61-1.31,3.62-1.96,7.8-1.96,12.53v26.88h-21.14V45.16h19.18Z"/><path class="cls-1" d="M711.35,112.5c-5.44,0-10.5-.96-15.18-2.87s-8.63-4.58-11.85-8l8.76-11.63c3.22,2.92,6.21,5.01,8.98,6.27,2.77,1.26,5.26,1.89,7.47,1.89,1.71,0,3.25-.17,4.61-.53,1.36-.35,2.44-.91,3.25-1.66.8-.75,1.21-1.74,1.21-2.94,0-1.71-.68-3.07-2.04-4.08-1.36-1-3.1-1.84-5.21-2.49-2.11-.65-4.38-1.33-6.8-2.04-6.04-1.91-10.39-4.71-13.06-8.38s-4-7.68-4-12c0-3.32.88-6.67,2.64-10.04s4.58-6.19,8.46-8.46c3.87-2.27,8.88-3.4,15.02-3.4,5.54,0,10.22.55,14.04,1.66,3.82,1.11,7.45,2.92,10.87,5.44l-8,12.38c-1.91-1.51-4.05-2.79-6.42-3.85s-4.56-1.64-6.57-1.74c-1.81-.1-3.35.1-4.61.6-1.26.51-2.24,1.16-2.94,1.96-.71.81-1.06,1.66-1.06,2.57-.1,1.91.63,3.42,2.19,4.53s3.55,1.96,5.96,2.57,4.78,1.31,7.1,2.11c3.22,1.01,5.99,2.37,8.3,4.08s4.1,3.75,5.36,6.11c1.26,2.37,1.89,5.21,1.89,8.53,0,4.03-1.03,7.83-3.1,11.4-2.06,3.57-5.19,6.47-9.36,8.68-4.18,2.21-9.49,3.32-15.93,3.32h.02Z"/></g></svg>